<?xml version="1.0" encoding="utf-8"?>
<!-- Generator: Adobe Illustrator 20.1.0, SVG Export Plug-In . SVG Version: 6.00 Build 0)  -->
<svg version="1.1" id="Capa_1" xmlns="http://www.w3.org/2000/svg" xmlns:xlink="http://www.w3.org/1999/xlink" x="0px" y="0px"
	 viewBox="0 0 470 470" style="enable-background:new 0 0 470 470;" xml:space="preserve">
<style type="text/css">
	.st0{fill:#94C03F;}
</style>
<g>
	<path class="st0" d="M372.2,9.1c-1.8-1.4-4.2-1.9-6.4-1.4L262.9,33.4C258.6,14.3,241.5,0,221.1,0c-21,0-38.6,15.3-42.1,35.3h-31.2
		c-29.2,0-52.9,22.9-52.9,51.1c0,4.1,3.4,7.5,7.5,7.5s7.5-3.4,7.5-7.5c0-19.9,17-36.1,37.9-36.1h30.5v15h-30.5
		c-4.1,0-7.5,3.4-7.5,7.5s3.4,7.5,7.5,7.5h30.5v40.2c-16.9,7.7-31.3,19.8-41.9,35.2c-11.9,17.2-18.2,37.4-18.2,58.4v248.4
		c0,4.1,3.4,7.5,7.5,7.5h190.8c4.1,0,7.5-3.4,7.5-7.5V214.1c0-21-6.3-41.2-18.2-58.4c-10.6-15.4-25.1-27.5-41.9-35.2v-27L365.8,119
		c0.6,0.2,1.2,0.2,1.8,0.2c1.7,0,3.3-0.5,4.6-1.6c1.8-1.4,2.9-3.6,2.9-5.9V15C375.1,12.7,374,10.5,372.2,9.1z M221.1,15
		c15.3,0,27.8,12.5,27.8,27.8V118h-55.6V42.8C193.3,27.5,205.8,15,221.1,15z M133.2,455v-46.7H309V455H133.2z M308.7,206.6h-123
		c-4.1,0-7.5,3.4-7.5,7.5s3.4,7.5,7.5,7.5H309v171.7H133.2V221.6h22.5c4.1,0,7.5-3.4,7.5-7.5s-3.4-7.5-7.5-7.5h-22.2
		c2.7-32.6,23.2-60.9,53.8-73.6h67.6C285.5,145.7,305.9,174,308.7,206.6z M360.1,102.1l-96.2-24V48.6l96.2-24V102.1z"/>
	<path class="st0" d="M180.4,362.1c10.5,10.6,24.6,16.2,40.7,16.2s30.2-5.6,40.7-16.2c10.9-11,17-26.6,16.9-42.8
		c-0.2-30.1-21.6-57-22.5-58.1c-1.5-1.8-3.7-2.9-6.1-2.8c-2.4,0.1-4.5,1.2-5.9,3.2c0,0-0.6,0.9-1.5,2.1c-3.7-8-9.1-17.8-16.3-25.1
		c-1.4-1.5-3.4-2.3-5.4-2.3s-4,0.8-5.4,2.3c-7.2,7.4-12.6,17.1-16.3,25.1c-0.9-1.3-1.5-2.1-1.5-2.1c-1.4-1.9-3.5-3.1-5.9-3.2
		c-2.3-0.1-4.6,1-6.1,2.8c-0.9,1.1-22.2,28-22.5,58.1C163.4,335.6,169.5,351.2,180.4,362.1z M191.9,279l1.8,2.5
		c2.2,3.1,3.9,5.5,8,5.3c3-0.2,5.5-2.1,6.6-4.9c0-0.1,0.1-0.2,0.2-0.5c1.3-4,5.7-15.9,12.6-25.9c6.9,9.9,11.3,21.8,12.6,25.9
		c0.1,0.3,0.1,0.4,0.2,0.5c1.3,3.4,4.9,5.4,8.5,4.7c2.9-0.6,4-2,6.2-5.1l1.8-2.5c5.6,9.2,13.3,24.6,13.4,40.4
		c0.1,12.3-4.5,24-12.6,32.1c-7.6,7.7-18,11.8-30,11.8s-22.4-4.1-30-11.8c-8.1-8.1-12.7-19.9-12.6-32.1
		C178.6,303.6,186.3,288.2,191.9,279z"/>
</g>
</svg>
