<?xml version="1.0" encoding="utf-8"?>
<!-- Generator: Adobe Illustrator 20.1.0, SVG Export Plug-In . SVG Version: 6.00 Build 0)  -->
<svg version="1.1" id="Capa_1" xmlns="http://www.w3.org/2000/svg" xmlns:xlink="http://www.w3.org/1999/xlink" x="0px" y="0px"
	 viewBox="0 0 60 60" style="enable-background:new 0 0 60 60;" xml:space="preserve">
<style type="text/css">
	.st0{fill:#94C03F;}
</style>
<g>
	<path class="st0" d="M38.9,0H6.5v60h47V14.6L38.9,0z M39.5,3.4L50.1,14H39.5V3.4z M8.5,58V2h29v14h14v42H8.5z"/>
	<path class="st0" d="M16.5,17h9c0.6,0,1-0.4,1-1c0-0.6-0.4-1-1-1h-9c-0.6,0-1,0.4-1,1S15.9,17,16.5,17z"/>
	<path class="st0" d="M16.5,25h5c0.6,0,1-0.4,1-1s-0.4-1-1-1h-5c-0.6,0-1,0.4-1,1S15.9,25,16.5,25z"/>
	<path class="st0" d="M31.5,25h7c0.6,0,1-0.4,1-1s-0.4-1-1-1h-7c-0.6,0-1,0.4-1,1S30.9,25,31.5,25z"/>
	<path class="st0" d="M25.8,23.3c-0.2,0.2-0.3,0.4-0.3,0.7c0,0.3,0.1,0.5,0.3,0.7c0.2,0.2,0.4,0.3,0.7,0.3s0.5-0.1,0.7-0.3
		c0.2-0.2,0.3-0.4,0.3-0.7c0-0.3-0.1-0.5-0.3-0.7C26.8,22.9,26.2,22.9,25.8,23.3z"/>
	<path class="st0" d="M43.5,25c0.3,0,0.5-0.1,0.7-0.3c0.2-0.2,0.3-0.5,0.3-0.7c0-0.3-0.1-0.5-0.3-0.7c-0.4-0.4-1-0.4-1.4,0
		c-0.2,0.2-0.3,0.4-0.3,0.7c0,0.3,0.1,0.5,0.3,0.7C43,24.9,43.2,25,43.5,25z"/>
	<path class="st0" d="M28.5,31h-7c-0.6,0-1,0.4-1,1c0,0.6,0.4,1,1,1h7c0.6,0,1-0.4,1-1S29.1,31,28.5,31z"/>
	<path class="st0" d="M16.5,33c0.3,0,0.5-0.1,0.7-0.3c0.2-0.2,0.3-0.5,0.3-0.7c0-0.3-0.1-0.5-0.3-0.7c-0.4-0.4-1-0.4-1.4,0
		c-0.2,0.2-0.3,0.4-0.3,0.7c0,0.3,0.1,0.5,0.3,0.7C16,32.9,16.2,33,16.5,33z"/>
	<path class="st0" d="M19.6,40.2c-2.2,1.1-2.9,3.3-3.2,5.6c-0.4-0.3-0.8-0.7-1.2-1c-1-0.8-2.4,0.6-1.4,1.4c0.9,0.8,1.9,1.6,2.8,2.4
		c0.7,0.6,1.7,0.2,1.7-0.7c0.1-2.2,0.2-4.7,2.3-5.9C21.8,41.3,20.8,39.6,19.6,40.2z"/>
	<path class="st0" d="M26.3,44.2c-1.4,0.3-3,2.1-3.9,0.1c-0.6-1.2-2.3-0.1-1.7,1c0.5,1,1.5,1.8,2.7,1.9c0.6,0.1,1.1,0,1.7-0.2
		c0.4-0.2,1.9-1.3,2.3-0.7c0.6,1.1,2.4,0.1,1.7-1C28.4,44.3,27.4,43.9,26.3,44.2z"/>
	<path class="st0" d="M46.7,34.5c-0.2-0.1-0.3-0.3-0.4-0.4c0-0.1-0.1-0.3,0-0.5c0.5-1,0.3-2.2-0.5-3c-0.8-0.8-2-1-3-0.5
		c-0.2,0.1-0.4,0.1-0.5,0c-0.1,0-0.3-0.1-0.4-0.4c-0.4-1.1-1.4-1.8-2.5-1.8s-2.1,0.7-2.5,1.8c-0.1,0.2-0.3,0.3-0.4,0.4
		c-0.1,0-0.3,0.1-0.5,0c-1-0.5-2.2-0.3-3,0.5c-0.8,0.8-1,2-0.5,3c0.1,0.2,0.1,0.4,0,0.5c0,0.1-0.1,0.3-0.4,0.4
		c-1.1,0.4-1.8,1.4-1.8,2.5s0.7,2.1,1.8,2.5c0.2,0.1,0.3,0.3,0.4,0.4c0,0.1,0.1,0.3,0,0.5c-0.5,1-0.3,2.2,0.5,3
		c0.4,0.4,0.9,0.6,1.4,0.7v12.3l5-5l5,5V44.1c0.5-0.1,1-0.3,1.4-0.7c0.8-0.8,1-2,0.5-3c-0.1-0.2-0.1-0.4,0-0.5
		c0-0.1,0.1-0.3,0.4-0.4c1.1-0.4,1.8-1.4,1.8-2.5S47.8,34.9,46.7,34.5z M39.5,48.6l-3,3v-7.8c0,0,0,0,0,0c0,0,0.1,0,0.1,0
		c0,0,0.1,0.1,0.2,0.1c0.1,0.1,0.1,0.1,0.2,0.3c0.4,1.1,1.4,1.8,2.5,1.8s2.1-0.7,2.5-1.8c0-0.1,0.1-0.2,0.2-0.3s0.1-0.1,0.2-0.1
		c0,0,0.1,0,0.1,0c0,0,0,0,0,0v7.8L39.5,48.6z M46.1,37.6c-0.7,0.2-1.3,0.8-1.6,1.5c-0.3,0.7-0.3,1.5,0.1,2.1c0.2,0.4,0,0.6-0.1,0.7
		c-0.1,0.1-0.3,0.2-0.6,0.2l-0.2-0.1c-0.1,0-0.2-0.1-0.3-0.1c-0.1,0-0.1-0.1-0.2-0.1c-0.1,0-0.2,0-0.3,0c-0.1,0-0.2,0-0.2,0
		c-0.1,0-0.2,0-0.3,0c-0.1,0-0.2,0-0.2,0c-0.2,0-0.4,0.1-0.5,0.2c0,0,0,0,0,0l0,0c0,0-0.1,0-0.1,0.1c-0.1,0.1-0.2,0.1-0.4,0.2
		c-0.1,0.1-0.3,0.2-0.4,0.3c0,0,0,0,0,0c-0.3,0.3-0.4,0.6-0.6,0.9C40,44,39.6,44,39.5,44s-0.5,0-0.6-0.4c-0.1-0.4-0.3-0.7-0.6-0.9
		c0,0,0,0,0,0c-0.1-0.1-0.2-0.2-0.4-0.3c-0.1-0.1-0.2-0.1-0.3-0.2c0,0-0.1-0.1-0.1-0.1l0,0c0,0,0,0,0,0c0,0,0,0-0.1,0
		c-0.1-0.1-0.3-0.1-0.4-0.1c-0.1,0-0.2,0-0.4,0c0,0-0.1,0-0.1,0c0,0,0,0,0,0c-0.4,0-0.7,0.1-1,0.2l-0.2,0.1
		c-0.3,0.1-0.5-0.1-0.6-0.2c-0.1-0.1-0.3-0.4-0.1-0.7c0.3-0.7,0.3-1.5,0.1-2.1c-0.3-0.7-0.9-1.2-1.6-1.5c-0.4-0.1-0.4-0.5-0.4-0.6
		s0-0.5,0.4-0.6c0.7-0.2,1.3-0.8,1.6-1.5c0.3-0.7,0.3-1.5-0.1-2.1c-0.2-0.4,0-0.6,0.1-0.7c0.1-0.1,0.4-0.3,0.7-0.1
		c0.7,0.3,1.5,0.3,2.1,0.1c0.7-0.3,1.2-0.9,1.5-1.6C39,30,39.4,30,39.5,30s0.5,0,0.6,0.4c0.2,0.7,0.8,1.3,1.5,1.6
		c0.7,0.3,1.5,0.3,2.1-0.1c0.4-0.2,0.6,0,0.7,0.1c0.1,0.1,0.3,0.4,0.1,0.7c-0.3,0.7-0.3,1.5-0.1,2.1c0.3,0.7,0.9,1.2,1.6,1.5
		c0.4,0.1,0.4,0.5,0.4,0.6S46.5,37.5,46.1,37.6z"/>
</g>
</svg>
